<svg version="1.1" id="Layer_1" xmlns="http://www.w3.org/2000/svg" xmlns:xlink="http://www.w3.org/1999/xlink" x="0px" y="0px"
	 width="100%" viewBox="0 0 1678 1436" enable-background="new 0 0 1678 1436" xml:space="preserve">
<path fill="#F5F5F5" opacity="1.000000" stroke="none" 
	d="
M1.000000,468.000000 
	C1.000000,312.000031 1.000000,156.500061 1.000000,1.000063 
	C560.333191,1.000042 1119.666382,1.000042 1678.999756,1.000021 
	C1678.999756,479.666473 1678.999756,958.332947 1678.999878,1436.999512 
	C1119.666992,1436.999756 560.333984,1436.999756 1.000470,1436.999878 
	C1.000000,1114.166626 1.000000,791.333313 1.000000,468.000000 
M311.910278,1272.782227 
	C312.688019,1274.137085 313.465759,1275.491943 314.173676,1277.555542 
	C316.045044,1280.095215 317.916412,1282.634766 320.001923,1285.055054 
	C320.001923,1285.055054 319.777588,1285.152710 319.333588,1285.828857 
	C323.188812,1292.243774 327.044037,1298.658691 331.000000,1305.000000 
	C331.000000,1305.000000 330.900116,1305.074585 330.894257,1305.834106 
	C331.533875,1306.293579 332.173492,1306.752930 332.852997,1307.057739 
	C332.852997,1307.057739 332.828827,1307.207275 332.608917,1307.958252 
	C346.562317,1313.240723 360.244781,1319.454834 374.526520,1323.608276 
	C402.630005,1331.781250 430.906097,1339.502319 459.414124,1346.099487 
	C483.566589,1351.688721 508.081451,1355.826050 532.559814,1359.852905 
	C549.253296,1362.599121 566.138489,1364.256104 582.977539,1366.021729 
	C601.333435,1367.946289 619.735168,1369.434570 638.582031,1371.367920 
	C638.926147,1371.316650 639.270203,1371.265381 640.269775,1371.820557 
	C651.317566,1372.546753 662.358398,1373.411499 673.414795,1373.965942 
	C689.291870,1374.762573 705.179810,1375.884399 721.063782,1375.894531 
	C764.645874,1375.922241 808.230225,1375.605469 851.809570,1375.083862 
	C869.367065,1374.873779 886.915649,1373.814087 904.465210,1373.070190 
	C919.513489,1372.432495 934.558594,1371.717285 949.602722,1370.986816 
	C955.054260,1370.722168 960.506226,1370.404297 965.945129,1369.954346 
	C981.389587,1368.676636 996.826904,1367.313110 1012.267944,1365.993896 
	C1020.657166,1365.277100 1029.060303,1364.699951 1037.435425,1363.848022 
	C1049.072510,1362.664429 1060.684082,1361.231567 1072.316528,1359.999756 
	C1082.483398,1358.922974 1092.666626,1358.001343 1102.830688,1356.900635 
	C1103.341431,1356.845459 1103.738281,1355.740479 1104.090088,1355.070312 
	C1104.090088,1355.070312 1104.060425,1355.178223 1104.939697,1355.569092 
	C1105.165771,1355.059204 1105.391968,1354.549194 1105.479248,1353.932007 
	C1105.479248,1353.932007 1105.358276,1354.059082 1104.861450,1355.008789 
	C1105.671753,1355.343018 1106.512451,1356.024780 1107.287720,1355.957275 
	C1114.239136,1355.351440 1121.182251,1354.642090 1128.114014,1353.844116 
	C1128.524292,1353.796753 1128.816772,1352.726562 1129.080933,1352.084473 
	C1129.080933,1352.084473 1129.060425,1352.178223 1129.939575,1352.569214 
	C1130.165649,1352.059082 1130.391724,1351.549072 1130.479004,1350.932373 
	C1130.479004,1350.932373 1130.358398,1351.059448 1129.868896,1352.005371 
	C1131.031616,1352.337280 1132.240601,1353.068359 1133.349731,1352.939453 
	C1144.399292,1351.655884 1155.433960,1350.243530 1166.461182,1348.777344 
	C1166.775635,1348.735474 1166.957520,1347.695312 1167.095215,1347.062622 
	C1167.095215,1347.062622 1167.060425,1347.178223 1167.939697,1347.569214 
	C1168.165771,1347.059204 1168.391846,1346.549072 1168.478882,1345.931885 
	C1168.478882,1345.931885 1168.357788,1346.058960 1167.850586,1347.004639 
	C1169.152954,1347.336304 1170.515381,1348.101929 1171.748291,1347.931274 
	C1182.074585,1346.501587 1192.388550,1344.969360 1202.677856,1343.294800 
	C1204.899780,1342.932983 1207.007568,1341.871216 1209.083008,1341.082642 
	C1209.083008,1341.082642 1209.060303,1341.178223 1209.939087,1341.569092 
	C1210.165649,1341.059448 1210.392212,1340.549683 1210.477905,1339.933716 
	C1210.477905,1339.933716 1210.357788,1340.063110 1209.865479,1340.994629 
	C1214.063232,1340.736450 1218.260864,1340.478271 1222.924561,1340.444214 
	C1223.237549,1340.339355 1223.550659,1340.234375 1224.738281,1340.046997 
	C1225.545898,1340.026123 1226.412598,1340.189087 1227.150513,1339.951660 
	C1229.846924,1339.083740 1232.500244,1338.082520 1235.083862,1337.081665 
	C1235.083862,1337.081665 1235.060303,1337.178223 1235.939087,1337.569092 
	C1236.165649,1337.059448 1236.392090,1336.549683 1236.477295,1335.933228 
	C1236.477295,1335.933228 1236.356567,1336.062744 1235.858154,1336.943481 
	C1238.008667,1337.024902 1240.159302,1337.106201 1242.607788,1337.359985 
	C1242.607788,1337.359985 1242.863647,1337.129517 1243.724487,1337.048096 
	C1246.001831,1336.691040 1248.284790,1336.366211 1250.555542,1335.971558 
	C1259.766113,1334.369995 1268.973145,1332.747070 1278.570679,1331.308716 
	C1278.570679,1331.308716 1278.926025,1331.071289 1279.698975,1331.019775 
	C1281.146118,1330.689331 1282.593262,1330.358887 1284.491455,1330.254883 
	C1284.644653,1330.185303 1284.797729,1330.115601 1285.786621,1330.022461 
	C1288.653564,1329.419189 1291.520508,1328.815796 1294.909668,1328.382568 
	C1295.248657,1328.278809 1295.587524,1328.175049 1296.764648,1328.025879 
	C1299.638916,1327.421387 1302.513184,1326.817017 1305.909668,1326.382568 
	C1306.248657,1326.278809 1306.587524,1326.175049 1307.761230,1326.026123 
	C1310.581299,1325.404053 1313.401367,1324.781860 1316.810425,1324.243042 
	C1317.190674,1324.177368 1317.570923,1324.111572 1318.700439,1324.024536 
	C1319.618164,1323.757446 1320.536011,1323.490356 1321.936890,1323.444336 
	C1322.255859,1323.331055 1322.574707,1323.217773 1323.734985,1323.029541 
	C1337.974121,1320.093384 1352.213135,1317.157104 1366.935303,1314.443848 
	C1367.254761,1314.330688 1367.574219,1314.217651 1368.642822,1314.032349 
	C1369.821655,1313.732300 1371.000488,1313.432251 1372.569824,1313.308716 
	C1372.569824,1313.308716 1372.926514,1313.071289 1373.728760,1313.026367 
	C1375.969604,1312.424805 1378.210327,1311.823242 1380.934814,1311.444092 
	C1381.254395,1311.330933 1381.574097,1311.217651 1382.698120,1311.030762 
	C1384.948730,1310.427979 1387.199341,1309.825195 1389.934204,1309.444214 
	C1390.254028,1309.330933 1390.573975,1309.217651 1391.702026,1309.030396 
	C1395.258545,1308.552612 1398.393433,1307.623169 1398.616699,1302.898315 
	C1398.709473,1302.598633 1398.802124,1302.298828 1399.128052,1301.218750 
	C1400.635864,1295.757446 1402.264282,1290.325684 1403.605591,1284.823853 
	C1404.386475,1281.620850 1404.707764,1278.305664 1405.135132,1275.034180 
	C1405.135132,1275.034180 1405.161133,1275.131836 1405.950806,1275.080078 
	C1407.992310,1268.123047 1410.059082,1261.172974 1412.019653,1254.193237 
	C1412.152222,1253.721069 1411.486694,1253.024658 1411.673828,1252.170898 
	C1411.822021,1251.321411 1411.970093,1250.472046 1412.936768,1249.507690 
	C1413.311768,1248.811646 1413.954102,1248.139893 1414.019409,1247.415894 
	C1414.544189,1241.600952 1417.769165,1240.583252 1423.258667,1240.548462 
	C1471.365356,1240.244507 1519.473999,1239.792603 1567.571533,1238.843384 
	C1579.776001,1238.602661 1590.824463,1233.761475 1600.078125,1225.438354 
	C1613.208374,1213.628418 1618.729736,1198.430786 1618.616699,1181.269287 
	C1618.285767,1131.023926 1617.550415,1080.781128 1617.035889,1030.536865 
	C1616.999023,1026.938965 1617.725220,1023.331116 1617.660400,1019.735718 
	C1617.168335,992.485718 1616.537109,965.238220 1616.040283,937.988281 
	C1615.980713,934.726196 1616.721069,931.449524 1616.661865,928.187378 
	C1616.164673,900.773132 1615.537231,873.361267 1615.040161,845.947021 
	C1614.980957,842.684875 1615.720825,839.408203 1615.661865,836.146057 
	C1615.164429,808.565857 1614.533691,780.988098 1614.041016,753.407837 
	C1613.976685,749.809937 1614.724976,746.197449 1614.659790,742.599670 
	C1614.168335,715.519836 1613.532959,688.442566 1613.041260,661.362732 
	C1612.975952,657.764954 1613.724854,654.152344 1613.659546,650.554565 
	C1613.168091,623.471924 1612.534912,596.391846 1612.041016,569.309204 
	C1611.978516,565.881042 1612.729248,562.437561 1612.659302,559.010193 
	C1612.181152,535.593201 1611.419922,512.180908 1611.097168,488.762329 
	C1610.941895,477.500366 1611.760742,466.227844 1611.749512,454.960480 
	C1611.731079,436.635254 1611.393188,418.310303 1611.771729,399.392487 
	C1611.850586,397.901123 1611.998047,396.409760 1611.998291,394.918396 
	C1612.009155,307.964172 1612.009399,221.009933 1612.000488,134.055710 
	C1612.000244,131.224823 1612.381104,128.275986 1611.730957,125.588562 
	C1610.528809,120.619164 1608.693726,115.802864 1607.037964,110.133873 
	C1606.025391,106.636063 1605.027710,103.133881 1603.996704,99.641533 
	C1602.698853,95.245399 1602.181152,90.371460 1599.892212,86.566795 
	C1595.101074,78.603409 1586.759155,74.830025 1578.583618,71.245132 
	C1566.126709,65.782883 1553.247803,62.847046 1539.431030,62.951687 
	C1476.119019,63.431171 1412.804077,63.511852 1349.489990,63.688358 
	C1306.332886,63.808666 1263.175537,63.869091 1220.018311,63.924515 
	C1070.051636,64.117111 920.085083,64.359962 770.118347,64.460770 
	C635.475647,64.551270 500.832764,64.507286 366.189972,64.461731 
	C329.701172,64.449379 293.212524,64.180038 256.723633,64.094154 
	C215.369522,63.996815 174.007812,63.548859 132.667236,64.272369 
	C124.317421,64.418495 115.544899,68.114403 107.856674,71.954437 
	C95.927315,77.912796 86.925507,87.986359 78.631516,98.155586 
	C69.572205,109.263153 64.694298,122.016945 64.953423,137.087128 
	C65.572105,173.068680 65.090721,209.068954 65.072845,245.061676 
	C65.019539,352.375275 64.948257,459.688904 64.934059,567.002502 
	C64.911049,740.971680 64.924347,914.940857 64.931076,1088.910034 
	C64.932297,1120.401978 64.916229,1151.894165 65.078850,1183.385376 
	C65.097946,1187.083740 65.946938,1190.842163 66.858208,1194.460205 
	C69.975693,1206.837402 77.578232,1215.970947 88.472626,1223.457642 
	C91.639359,1225.257568 94.806091,1227.057495 98.628807,1229.195801 
	C110.731682,1235.264404 123.415207,1239.001465 137.079666,1239.009888 
	C186.231583,1239.040283 235.383667,1239.184448 284.535065,1239.050781 
	C289.409485,1239.037476 293.412384,1239.430664 296.000000,1244.000000 
	C296.000000,1244.000000 295.906799,1244.070068 295.910675,1244.789307 
	C297.243103,1246.882935 298.575531,1248.976685 300.000000,1251.000000 
	C300.000000,1251.000000 299.906830,1251.070068 299.911224,1251.789917 
	C301.243500,1253.883179 302.575775,1255.976440 303.998779,1258.000000 
	C303.998779,1258.000000 303.906830,1258.070068 303.911224,1258.789917 
	C305.243500,1260.883179 306.575775,1262.976562 308.000000,1265.000000 
	C308.000000,1265.000000 307.907471,1265.071411 307.912140,1265.792114 
	C309.244141,1267.884644 310.576141,1269.977295 312.002258,1272.018433 
	C312.002258,1272.018433 311.912506,1272.081421 311.910278,1272.782227 
z"/>
<path fill="#7E7E7E" opacity="1.000000" stroke="none" 
	d="
M1322.893677,1323.104492 
	C1322.574707,1323.217773 1322.255859,1323.331055 1321.552490,1322.936768 
	C1320.095703,1322.968140 1319.023438,1323.506958 1317.951172,1324.045776 
	C1317.570923,1324.111572 1317.190674,1324.177368 1316.374512,1323.794800 
	C1312.591431,1323.119751 1308.856934,1321.611938 1306.926514,1326.071289 
	C1306.587524,1326.175049 1306.248657,1326.278809 1305.482666,1325.888916 
	C1301.664673,1325.100098 1297.918823,1323.594482 1295.926514,1328.071289 
	C1295.587524,1328.175049 1295.248657,1328.278809 1294.482910,1327.889038 
	C1290.679688,1327.105591 1286.946777,1325.591553 1284.950928,1330.045776 
	C1284.797729,1330.115601 1284.644653,1330.185303 1284.176147,1329.730469 
	C1281.889771,1328.964844 1279.397461,1327.344482 1278.926025,1331.071289 
	C1278.926025,1331.071289 1278.570679,1331.308716 1278.251709,1330.788208 
	C1266.501465,1331.900146 1255.067749,1333.516602 1243.650391,1335.241455 
	C1243.301025,1335.294189 1243.122070,1336.474731 1242.863525,1337.129517 
	C1242.863647,1337.129517 1242.607788,1337.359985 1242.289307,1336.824463 
	C1240.099365,1336.213501 1238.228027,1336.138184 1236.356567,1336.062744 
	C1236.356567,1336.062744 1236.477295,1335.933228 1236.193848,1336.037476 
	C1235.627075,1336.487183 1235.343628,1336.832642 1235.060303,1337.178223 
	C1235.060303,1337.178223 1235.083862,1337.081665 1234.679932,1337.056274 
	C1232.324463,1337.101807 1230.272949,1336.823853 1228.451172,1337.346558 
	C1226.792358,1337.822388 1225.382935,1339.167480 1223.863647,1340.129517 
	C1223.550659,1340.234375 1223.237549,1340.339355 1222.499756,1339.913574 
	C1218.169312,1339.609741 1214.263550,1339.836426 1210.357788,1340.063110 
	C1210.357788,1340.063110 1210.477905,1339.933716 1210.194214,1340.037720 
	C1209.627075,1340.487183 1209.343750,1340.832764 1209.060303,1341.178223 
	C1209.060303,1341.178223 1209.083008,1341.082642 1208.673584,1341.056396 
	C1206.137207,1341.160156 1203.992798,1341.159668 1201.886353,1341.442017 
	C1190.704956,1342.941895 1179.532959,1344.512695 1168.357788,1346.058960 
	C1168.357788,1346.058960 1168.478882,1345.931885 1168.194336,1346.036621 
	C1167.626831,1346.487061 1167.343628,1346.832642 1167.060425,1347.178223 
	C1167.060425,1347.178223 1167.095215,1347.062622 1166.743164,1347.048706 
	C1164.087036,1347.112915 1161.761841,1347.019287 1159.482544,1347.299072 
	C1149.767090,1348.492188 1140.065186,1349.796021 1130.358398,1351.059448 
	C1130.358398,1351.059448 1130.479004,1350.932373 1130.194458,1351.036865 
	C1129.626831,1351.487061 1129.343628,1351.832642 1129.060425,1352.178223 
	C1129.060425,1352.178223 1129.080933,1352.084473 1128.707520,1352.062012 
	C1120.675537,1352.712646 1113.016846,1353.385864 1105.358276,1354.059082 
	C1105.358276,1354.059082 1105.479248,1353.932007 1105.194580,1354.036621 
	C1104.626831,1354.486938 1104.343628,1354.832642 1104.060425,1355.178223 
	C1104.060425,1355.178223 1104.090088,1355.070312 1103.673584,1355.052856 
	C1099.976074,1355.338379 1096.691772,1355.606934 1093.415039,1355.950073 
	C1074.392822,1357.942261 1055.386719,1360.100708 1036.347656,1361.914673 
	C1016.806824,1363.776245 997.242126,1365.402832 977.673523,1366.950806 
	C963.017639,1368.110352 948.347412,1369.137939 933.668091,1369.939453 
	C918.455017,1370.770020 903.223633,1371.267578 887.999512,1371.892090 
	C870.612000,1372.605347 853.223877,1373.874634 835.835510,1373.884277 
	C794.581482,1373.907349 753.326599,1373.381470 712.073242,1372.961426 
	C699.629456,1372.834717 687.182495,1372.486694 674.750488,1371.935059 
	C667.339172,1371.606079 659.964478,1370.417725 652.553345,1370.130371 
	C648.260803,1369.963989 643.928589,1370.818848 639.614258,1371.214111 
	C639.270203,1371.265381 638.926147,1371.316650 638.437744,1370.795654 
	C637.310730,1369.790894 636.356812,1369.074585 635.340637,1368.971558 
	C628.285156,1368.256104 621.205933,1367.769897 614.154541,1367.020020 
	C592.172974,1364.682495 570.145325,1362.674072 548.240051,1359.753906 
	C526.861450,1356.903809 505.484131,1353.729004 484.339661,1349.523315 
	C461.910461,1345.062012 439.516998,1340.054443 417.543030,1333.765381 
	C391.237854,1326.236816 365.397827,1317.084839 339.341003,1308.683472 
	C337.230988,1308.003174 335.002350,1307.690674 332.828827,1307.207275 
	C332.828827,1307.207275 332.852997,1307.057739 333.011230,1306.777344 
	C332.412994,1306.022827 331.656555,1305.548706 330.900146,1305.074585 
	C330.900116,1305.074585 331.000000,1305.000000 331.190552,1304.694580 
	C329.487213,1300.614014 327.783905,1296.725830 325.638245,1293.099609 
	C323.970764,1290.281250 321.751587,1287.789551 319.777588,1285.152710 
	C319.777588,1285.152710 320.001923,1285.055054 320.099426,1284.773193 
	C318.500793,1281.231079 316.804657,1277.970947 314.939789,1274.422119 
	C313.818237,1273.449463 312.865356,1272.765503 311.912506,1272.081421 
	C311.912506,1272.081421 312.002258,1272.018433 312.194214,1271.699585 
	C310.893250,1269.277588 309.400360,1267.174561 307.907471,1265.071411 
	C307.907471,1265.071411 308.000000,1265.000000 308.192993,1264.691040 
	C306.892944,1262.278076 305.399902,1260.174072 303.906830,1258.070068 
	C303.906830,1258.070068 303.998779,1258.000000 304.192413,1257.691284 
	C302.892975,1255.278442 301.399902,1253.174194 299.906860,1251.070068 
	C299.906830,1251.070068 300.000000,1251.000000 300.192993,1250.691406 
	C298.892944,1248.278564 297.399872,1246.174316 295.906799,1244.070068 
	C295.906799,1244.070068 296.000000,1244.000000 296.196411,1243.687866 
	C296.207489,1242.287720 296.022125,1241.199829 295.912231,1239.874756 
	C295.987671,1239.637817 296.107910,1239.155029 296.569366,1239.140259 
	C320.343658,1239.336060 343.656158,1239.664551 366.969421,1239.737793 
	C486.741821,1240.113892 606.514282,1240.465088 726.286987,1240.741455 
	C792.927368,1240.895264 859.568176,1240.941162 926.208801,1240.938843 
	C1086.480591,1240.933105 1246.752441,1240.870361 1407.024170,1240.830566 
	C1409.150146,1240.830078 1411.276245,1240.830444 1413.526855,1240.830444 
	C1412.996216,1244.142700 1412.557251,1246.882568 1412.118164,1249.622559 
	C1411.970093,1250.472046 1411.822021,1251.321411 1411.124756,1252.584717 
	C1408.770874,1260.376343 1406.965942,1267.754028 1405.161133,1275.131836 
	C1405.161133,1275.131836 1405.135132,1275.034180 1404.815674,1275.153442 
	C1402.106812,1284.121826 1399.717163,1292.971069 1397.207397,1301.982422 
	C1396.973389,1302.395996 1396.870972,1302.651733 1396.522949,1303.152832 
	C1395.140137,1304.520508 1393.993896,1305.627930 1392.895752,1306.781250 
	C1392.191772,1307.520752 1391.558594,1308.327759 1390.893799,1309.104492 
	C1390.573975,1309.217651 1390.254028,1309.330933 1389.537964,1308.932861 
	C1386.253296,1308.039551 1383.155762,1307.092651 1381.893677,1311.104492 
	C1381.574097,1311.217651 1381.254395,1311.330933 1380.530518,1310.930786 
	C1377.290161,1310.118652 1374.040283,1308.697266 1372.926514,1313.071289 
	C1372.926514,1313.071289 1372.569824,1313.308716 1372.280762,1312.802612 
	C1370.276489,1312.107788 1367.906250,1310.434204 1367.893677,1314.104492 
	C1367.574219,1314.217651 1367.254761,1314.330688 1366.516235,1313.927612 
	C1365.464600,1313.259277 1364.786743,1312.875488 1364.206299,1312.989380 
	C1350.991333,1315.580688 1337.781372,1318.198853 1324.597046,1320.939697 
	C1323.908936,1321.082764 1323.456055,1322.356812 1322.893677,1323.104492 
z"/>
<path fill="#361D1D" opacity="1.000000" stroke="none" 
	d="
M295.836761,1240.111816 
	C296.022125,1241.199829 296.207489,1242.287720 296.150330,1243.722656 
	C293.412384,1239.430664 289.409485,1239.037476 284.535065,1239.050781 
	C235.383667,1239.184448 186.231583,1239.040283 137.079666,1239.009888 
	C123.415207,1239.001465 110.731682,1235.264404 98.350876,1228.676025 
	C99.411598,1225.064941 100.750259,1221.973511 102.406174,1219.050293 
	C113.175056,1224.260132 123.945778,1227.924561 135.768646,1227.960938 
	C218.245010,1228.214478 300.720978,1228.590210 383.197388,1228.837769 
	C508.161804,1229.212891 633.126221,1229.602783 758.091003,1229.823853 
	C879.231567,1230.038208 1000.372681,1230.186157 1121.513428,1230.107910 
	C1240.814941,1230.030884 1360.116455,1229.709106 1479.417480,1229.322876 
	C1508.683838,1229.228149 1537.948853,1228.499146 1567.213135,1227.985596 
	C1576.216187,1227.827759 1584.104370,1224.478882 1591.389526,1219.191650 
	C1592.721313,1219.774658 1593.945068,1220.663208 1594.851318,1220.411011 
	C1601.430664,1218.580322 1602.035767,1217.223877 1600.097290,1209.684448 
	C1605.508179,1199.972656 1608.020752,1189.967896 1607.896362,1179.147583 
	C1607.487183,1143.509521 1607.317139,1107.868774 1606.989380,1072.229858 
	C1606.706177,1041.427979 1606.333618,1010.627014 1605.999512,979.825623 
	C1605.667114,949.186401 1605.332397,918.547241 1605.000000,887.908020 
	C1604.665649,857.102905 1604.333740,826.297729 1603.999634,795.492615 
	C1603.667236,764.854309 1603.331543,734.216003 1603.000000,703.577698 
	C1602.664795,672.608215 1602.335693,641.638733 1601.998901,610.669250 
	C1601.669312,580.363220 1601.329590,550.057373 1601.000610,519.751343 
	C1600.662720,488.612366 1600.335815,457.473328 1599.998901,426.334351 
	C1599.669189,395.862122 1599.330933,365.390015 1599.000366,334.917786 
	C1598.664307,303.949829 1598.265625,272.982330 1598.021118,242.013657 
	C1597.829224,217.692673 1598.810669,193.314743 1597.438477,169.065796 
	C1596.327026,149.426254 1600.542236,129.423676 1593.963135,109.657761 
	C1593.637451,105.091492 1593.309814,100.991356 1592.984375,96.526016 
	C1591.405029,93.724152 1590.343384,90.583389 1588.155518,88.967430 
	C1575.832642,79.866089 1561.846558,74.171600 1546.558716,74.148407 
	C1470.585815,74.033150 1394.612305,74.446533 1318.638794,74.614334 
	C1251.660645,74.762268 1184.682251,74.865059 1117.703979,74.929077 
	C982.411499,75.058388 847.118652,75.375862 711.826538,75.198555 
	C524.394653,74.952919 336.963287,74.343094 149.531937,73.809708 
	C137.686218,73.776001 126.063026,74.721970 115.396172,80.167503 
	C110.341583,82.747917 104.267296,84.523033 101.789917,90.962677 
	C98.970070,93.333481 96.493240,95.641769 93.704056,98.078598 
	C81.877724,109.158188 75.792847,121.842621 75.842850,138.469559 
	C76.193672,255.119080 75.903397,371.770477 75.858665,488.421265 
	C75.802750,634.235596 75.742599,780.049988 75.768219,925.864319 
	C75.783264,1011.518616 75.961815,1097.172852 76.065598,1182.827148 
	C76.080986,1195.523315 81.660561,1205.189575 92.066025,1212.612305 
	C90.723289,1216.307983 89.375595,1219.626587 88.027908,1222.945312 
	C77.578232,1215.970947 69.975693,1206.837402 66.858208,1194.460205 
	C65.946938,1190.842163 65.097946,1187.083740 65.078850,1183.385376 
	C64.916229,1151.894165 64.932297,1120.401978 64.931076,1088.910034 
	C64.924347,914.940857 64.911049,740.971680 64.934059,567.002502 
	C64.948257,459.688904 65.019539,352.375275 65.072845,245.061676 
	C65.090721,209.068954 65.572105,173.068680 64.953423,137.087128 
	C64.694298,122.016945 69.572205,109.263153 78.631516,98.155586 
	C86.925507,87.986359 95.927315,77.912796 107.856674,71.954437 
	C115.544899,68.114403 124.317421,64.418495 132.667236,64.272369 
	C174.007812,63.548859 215.369522,63.996815 256.723633,64.094154 
	C293.212524,64.180038 329.701172,64.449379 366.189972,64.461731 
	C500.832764,64.507286 635.475647,64.551270 770.118347,64.460770 
	C920.085083,64.359962 1070.051636,64.117111 1220.018311,63.924515 
	C1263.175537,63.869091 1306.332886,63.808666 1349.489990,63.688358 
	C1412.804077,63.511852 1476.119019,63.431171 1539.431030,62.951687 
	C1553.247803,62.847046 1566.126709,65.782883 1578.583618,71.245132 
	C1586.759155,74.830025 1595.101074,78.603409 1599.892212,86.566795 
	C1602.181152,90.371460 1602.698853,95.245399 1603.996704,99.641533 
	C1605.027710,103.133881 1606.025391,106.636063 1606.997437,110.989761 
	C1607.295166,116.948906 1607.869385,122.049210 1607.933472,127.155914 
	C1608.342651,159.723831 1608.701050,192.292679 1608.948730,224.862198 
	C1609.084839,242.776962 1608.851440,260.694702 1609.014893,278.609009 
	C1609.123779,290.540802 1609.862305,302.467651 1609.927002,314.398865 
	C1610.071899,341.140594 1609.949097,367.883728 1610.024658,394.626038 
	C1610.029785,396.413513 1610.784180,398.198914 1611.190186,399.985260 
	C1611.393188,418.310303 1611.731079,436.635254 1611.749512,454.960480 
	C1611.760742,466.227844 1610.941895,477.500366 1611.097168,488.762329 
	C1611.419922,512.180908 1612.181152,535.593201 1612.659302,559.010193 
	C1612.729248,562.437561 1611.978516,565.881042 1612.041016,569.309204 
	C1612.534912,596.391846 1613.168091,623.471924 1613.659546,650.554565 
	C1613.724854,654.152344 1612.975952,657.764954 1613.041260,661.362732 
	C1613.532959,688.442566 1614.168335,715.519836 1614.659790,742.599670 
	C1614.724976,746.197449 1613.976685,749.809937 1614.041016,753.407837 
	C1614.533691,780.988098 1615.164429,808.565857 1615.661865,836.146057 
	C1615.720825,839.408203 1614.980957,842.684875 1615.040161,845.947021 
	C1615.537231,873.361267 1616.164673,900.773132 1616.661865,928.187378 
	C1616.721069,931.449524 1615.980713,934.726196 1616.040283,937.988281 
	C1616.537109,965.238220 1617.168335,992.485718 1617.660400,1019.735718 
	C1617.725220,1023.331116 1616.999023,1026.938965 1617.035889,1030.536865 
	C1617.550415,1080.781128 1618.285767,1131.023926 1618.616699,1181.269287 
	C1618.729736,1198.430786 1613.208374,1213.628418 1600.078125,1225.438354 
	C1590.824463,1233.761475 1579.776001,1238.602661 1567.571533,1238.843384 
	C1519.473999,1239.792603 1471.365356,1240.244507 1423.258667,1240.548462 
	C1417.769165,1240.583252 1414.544189,1241.600952 1414.019409,1247.415894 
	C1413.954102,1248.139893 1413.311768,1248.811646 1412.527588,1249.565186 
	C1412.557251,1246.882568 1412.996216,1244.142700 1413.526855,1240.830444 
	C1411.276245,1240.830444 1409.150146,1240.830078 1407.024170,1240.830566 
	C1246.752441,1240.870361 1086.480591,1240.933105 926.208801,1240.938843 
	C859.568176,1240.941162 792.927368,1240.895264 726.286987,1240.741455 
	C606.514282,1240.465088 486.741821,1240.113892 366.969421,1239.737793 
	C343.656158,1239.664551 320.343658,1239.336060 296.354431,1239.142700 
	C295.573883,1239.256714 295.365204,1239.409058 295.382416,1239.441528 
	C295.508484,1239.678467 295.679749,1239.891357 295.836761,1240.111816 
z"/>
<path fill="#030304" opacity="1.000000" stroke="none" 
	d="
M102.088943,1218.882080 
	C100.750259,1221.973511 99.411598,1225.064941 98.022888,1228.506836 
	C94.806091,1227.057495 91.639359,1225.257568 88.250259,1223.201416 
	C89.375595,1219.626587 90.723289,1216.307983 92.410477,1212.487305 
	C93.415581,1211.071289 94.252235,1210.237183 94.722282,1209.231689 
	C115.125130,1165.581543 135.488464,1121.912964 155.871719,1078.253662 
	C180.124634,1026.305908 204.410065,974.373352 228.644714,922.417053 
	C242.622726,892.449768 256.528442,862.448792 270.783386,832.288696 
	C273.239777,831.971191 275.379578,831.702698 277.519348,831.702576 
	C653.632751,831.684143 1029.746216,831.684814 1405.859619,831.684814 
	C1408.124634,831.684814 1410.389526,831.684814 1412.552979,831.684814 
	C1412.552979,630.734741 1412.552979,430.509613 1412.552979,229.967239 
	C1410.235962,229.967239 1408.256592,229.967224 1406.277222,229.967224 
	C1029.497192,229.967407 652.717224,229.967270 275.937195,229.976654 
	C273.943329,229.976700 271.949463,230.111221 269.638885,230.043976 
	C210.886917,185.920013 152.451660,141.935043 94.016411,97.950066 
	C96.493240,95.641769 98.970070,93.333481 102.115921,91.061630 
	C103.203514,91.368073 103.641106,91.612846 104.038002,91.911667 
	C159.743378,133.853027 215.424957,175.826157 271.218201,217.650284 
	C273.663788,219.483582 277.130371,220.921707 280.121979,220.922882 
	C653.046265,221.067749 1025.970581,221.065323 1398.894897,220.958130 
	C1401.670532,220.957336 1404.835938,220.017975 1407.163574,218.506714 
	C1460.626831,183.796387 1514.009521,148.962006 1567.376587,114.103798 
	C1575.986206,108.480194 1584.450562,102.634323 1592.982056,96.891205 
	C1593.309814,100.991356 1593.637451,105.091492 1593.627808,109.706017 
	C1537.519165,146.572174 1481.767334,182.953903 1425.926270,219.198166 
	C1422.717651,221.280701 1421.646240,223.455444 1421.648071,227.223053 
	C1421.744019,429.200562 1421.721680,631.178101 1421.830566,833.155579 
	C1421.832397,836.495667 1422.754883,840.087524 1424.171021,843.132568 
	C1431.954346,859.867859 1440.045044,876.459839 1447.994263,893.118225 
	C1471.770264,942.943359 1495.523315,992.779358 1519.296997,1042.605469 
	C1543.071533,1092.433228 1566.838745,1142.264404 1590.670166,1192.064941 
	C1593.579224,1198.143921 1596.864990,1204.042603 1599.976196,1210.024902 
	C1602.035767,1217.223877 1601.430664,1218.580322 1594.851318,1220.411011 
	C1593.945068,1220.663208 1592.721313,1219.774658 1591.301880,1218.838623 
	C1580.688965,1196.638184 1570.449097,1174.999023 1560.141968,1153.391846 
	C1536.514160,1103.860474 1512.845215,1054.348633 1489.208740,1004.821411 
	C1463.854004,951.693848 1438.471802,898.579285 1413.265381,845.381348 
	C1411.361206,841.362549 1409.198608,840.053528 1404.716919,840.056152 
	C1178.233887,840.187805 951.750732,840.171875 725.267578,840.171875 
	C578.445190,840.171875 431.622742,840.199707 284.800507,840.044312 
	C280.159027,840.039368 278.149811,841.566040 276.357178,845.598022 
	C270.142151,859.577148 263.511719,873.371521 257.038086,887.235657 
	C230.590195,943.877258 204.151520,1000.523132 177.690979,1057.158813 
	C152.502258,1111.072144 127.290558,1164.974731 102.088943,1218.882080 
z"/>
<path fill="#361D1D" opacity="1.000000" stroke="none" 
	d="
M639.942017,1371.517334 
	C643.928589,1370.818848 648.260803,1369.963989 652.553345,1370.130371 
	C659.964478,1370.417725 667.339172,1371.606079 674.750488,1371.935059 
	C687.182495,1372.486694 699.629456,1372.834717 712.073242,1372.961426 
	C753.326599,1373.381470 794.581482,1373.907349 835.835510,1373.884277 
	C853.223877,1373.874634 870.612000,1372.605347 887.999512,1371.892090 
	C903.223633,1371.267578 918.455017,1370.770020 933.668091,1369.939453 
	C948.347412,1369.137939 963.017639,1368.110352 977.673523,1366.950806 
	C997.242126,1365.402832 1016.806824,1363.776245 1036.347656,1361.914673 
	C1055.386719,1360.100708 1074.392822,1357.942261 1093.415039,1355.950073 
	C1096.691772,1355.606934 1099.976074,1355.338379 1103.722656,1355.079834 
	C1103.738281,1355.740479 1103.341431,1356.845459 1102.830688,1356.900635 
	C1092.666626,1358.001343 1082.483398,1358.922974 1072.316528,1359.999756 
	C1060.684082,1361.231567 1049.072510,1362.664429 1037.435425,1363.848022 
	C1029.060303,1364.699951 1020.657166,1365.277100 1012.267944,1365.993896 
	C996.826904,1367.313110 981.389587,1368.676636 965.945129,1369.954346 
	C960.506226,1370.404297 955.054260,1370.722168 949.602722,1370.986816 
	C934.558594,1371.717285 919.513489,1372.432495 904.465210,1373.070190 
	C886.915649,1373.814087 869.367065,1374.873779 851.809570,1375.083862 
	C808.230225,1375.605469 764.645874,1375.922241 721.063782,1375.894531 
	C705.179810,1375.884399 689.291870,1374.762573 673.414795,1373.965942 
	C662.358398,1373.411499 651.317566,1372.546753 639.942017,1371.517334 
z"/>
<path fill="#9F9D9D" opacity="1.000000" stroke="none" 
	d="
M1611.480957,399.688873 
	C1610.784180,398.198914 1610.029785,396.413513 1610.024658,394.626038 
	C1609.949097,367.883728 1610.071899,341.140594 1609.927002,314.398865 
	C1609.862305,302.467651 1609.123779,290.540802 1609.014893,278.609009 
	C1608.851440,260.694702 1609.084839,242.776962 1608.948730,224.862198 
	C1608.701050,192.292679 1608.342651,159.723831 1607.933472,127.155914 
	C1607.869385,122.049210 1607.295166,116.948906 1607.039551,111.384216 
	C1608.693726,115.802864 1610.528809,120.619164 1611.730957,125.588562 
	C1612.381104,128.275986 1612.000244,131.224823 1612.000488,134.055710 
	C1612.009399,221.009933 1612.009155,307.964172 1611.998291,394.918396 
	C1611.998047,396.409760 1611.850586,397.901123 1611.480957,399.688873 
z"/>
<path fill="#361D1D" opacity="1.000000" stroke="none" 
	d="
M332.718872,1307.582764 
	C335.002350,1307.690674 337.230988,1308.003174 339.341003,1308.683472 
	C365.397827,1317.084839 391.237854,1326.236816 417.543030,1333.765381 
	C439.516998,1340.054443 461.910461,1345.062012 484.339661,1349.523315 
	C505.484131,1353.729004 526.861450,1356.903809 548.240051,1359.753906 
	C570.145325,1362.674072 592.172974,1364.682495 614.154541,1367.020020 
	C621.205933,1367.769897 628.285156,1368.256104 635.340637,1368.971558 
	C636.356812,1369.074585 637.310730,1369.790894 638.205200,1370.668213 
	C619.735168,1369.434570 601.333435,1367.946289 582.977539,1366.021729 
	C566.138489,1364.256104 549.253296,1362.599121 532.559814,1359.852905 
	C508.081451,1355.826050 483.566589,1351.688721 459.414124,1346.099487 
	C430.906097,1339.502319 402.630005,1331.781250 374.526520,1323.608276 
	C360.244781,1319.454834 346.562317,1313.240723 332.718872,1307.582764 
z"/>
<path fill="#361D1D" opacity="1.000000" stroke="none" 
	d="
M1323.314331,1323.067017 
	C1323.456055,1322.356812 1323.908936,1321.082764 1324.597046,1320.939697 
	C1337.781372,1318.198853 1350.991333,1315.580688 1364.206299,1312.989380 
	C1364.786743,1312.875488 1365.464600,1313.259277 1366.274658,1313.816162 
	C1352.213135,1317.157104 1337.974121,1320.093384 1323.314331,1323.067017 
z"/>
<path fill="#361D1D" opacity="1.000000" stroke="none" 
	d="
M1168.104248,1346.531738 
	C1179.532959,1344.512695 1190.704956,1342.941895 1201.886353,1341.442017 
	C1203.992798,1341.159668 1206.137207,1341.160156 1208.716064,1341.080933 
	C1207.007568,1341.871216 1204.899780,1342.932983 1202.677856,1343.294800 
	C1192.388550,1344.969360 1182.074585,1346.501587 1171.748291,1347.931274 
	C1170.515381,1348.101929 1169.152954,1347.336304 1168.104248,1346.531738 
z"/>
<path fill="#361D1D" opacity="1.000000" stroke="none" 
	d="
M1130.113647,1351.532471 
	C1140.065186,1349.796021 1149.767090,1348.492188 1159.482544,1347.299072 
	C1161.761841,1347.019287 1164.087036,1347.112915 1166.796143,1347.077637 
	C1166.957520,1347.695312 1166.775635,1348.735474 1166.461182,1348.777344 
	C1155.433960,1350.243530 1144.399292,1351.655884 1133.349731,1352.939453 
	C1132.240601,1353.068359 1131.031616,1352.337280 1130.113647,1351.532471 
z"/>
<path fill="#361D1D" opacity="1.000000" stroke="none" 
	d="
M1243.293945,1337.088867 
	C1243.122070,1336.474731 1243.301025,1335.294189 1243.650391,1335.241455 
	C1255.067749,1333.516602 1266.501465,1331.900146 1278.057007,1330.699951 
	C1268.973145,1332.747070 1259.766113,1334.369995 1250.555542,1335.971558 
	C1248.284790,1336.366211 1246.001831,1336.691040 1243.293945,1337.088867 
z"/>
<path fill="#361D1D" opacity="1.000000" stroke="none" 
	d="
M1105.109863,1354.533936 
	C1113.016846,1353.385864 1120.675537,1352.712646 1128.749023,1352.085938 
	C1128.816772,1352.726562 1128.524292,1353.796753 1128.114014,1353.844116 
	C1121.182251,1354.642090 1114.239136,1355.351440 1107.287720,1355.957275 
	C1106.512451,1356.024780 1105.671753,1355.343018 1105.109863,1354.533936 
z"/>
<path fill="#361D1D" opacity="1.000000" stroke="none" 
	d="
M1397.327515,1301.820190 
	C1399.717163,1292.971069 1402.106812,1284.121826 1404.866211,1275.156860 
	C1404.707764,1278.305664 1404.386475,1281.620850 1403.605591,1284.823853 
	C1402.264282,1290.325684 1400.635864,1295.757446 1398.619385,1301.565186 
	C1397.849609,1301.881104 1397.588501,1301.850586 1397.327515,1301.820190 
z"/>
<path fill="#361D1D" opacity="1.000000" stroke="none" 
	d="
M319.555603,1285.490723 
	C321.751587,1287.789551 323.970764,1290.281250 325.638245,1293.099609 
	C327.783905,1296.725830 329.487213,1300.614014 331.140198,1304.731445 
	C327.044037,1298.658691 323.188812,1292.243774 319.555603,1285.490723 
z"/>
<path fill="#361D1D" opacity="1.000000" stroke="none" 
	d="
M1405.555908,1275.105957 
	C1406.965942,1267.754028 1408.770874,1260.376343 1410.884033,1252.715576 
	C1411.486694,1253.024658 1412.152222,1253.721069 1412.019653,1254.193237 
	C1410.059082,1261.172974 1407.992310,1268.123047 1405.555908,1275.105957 
z"/>
<path fill="#361D1D" opacity="1.000000" stroke="none" 
	d="
M1210.111572,1340.528809 
	C1214.263550,1339.836426 1218.169312,1339.609741 1222.266846,1339.801514 
	C1218.260864,1340.478271 1214.063232,1340.736450 1210.111572,1340.528809 
z"/>
<path fill="#361D1D" opacity="1.000000" stroke="none" 
	d="
M1224.301025,1340.088257 
	C1225.382935,1339.167480 1226.792358,1337.822388 1228.451172,1337.346558 
	C1230.272949,1336.823853 1232.324463,1337.101807 1234.722900,1337.081299 
	C1232.500244,1338.082520 1229.846924,1339.083740 1227.150513,1339.951660 
	C1226.412598,1340.189087 1225.545898,1340.026123 1224.301025,1340.088257 
z"/>
<path fill="#361D1D" opacity="1.000000" stroke="none" 
	d="
M1296.345581,1328.048584 
	C1297.918823,1323.594482 1301.664673,1325.100098 1305.221680,1325.803955 
	C1302.513184,1326.817017 1299.638916,1327.421387 1296.345581,1328.048584 
z"/>
<path fill="#361D1D" opacity="1.000000" stroke="none" 
	d="
M1285.368774,1330.034180 
	C1286.946777,1325.591553 1290.679688,1327.105591 1294.221924,1327.803955 
	C1291.520508,1328.815796 1288.653564,1329.419189 1285.368774,1330.034180 
z"/>
<path fill="#361D1D" opacity="1.000000" stroke="none" 
	d="
M1307.343872,1326.048706 
	C1308.856934,1321.611938 1312.591431,1323.119751 1316.079956,1323.753174 
	C1313.401367,1324.781860 1310.581299,1325.404053 1307.343872,1326.048706 
z"/>
<path fill="#361D1D" opacity="1.000000" stroke="none" 
	d="
M315.108521,1274.710693 
	C316.804657,1277.970947 318.500793,1281.231079 319.992340,1284.832886 
	C317.916412,1282.634766 316.045044,1280.095215 314.473450,1276.685425 
	C314.884979,1275.447144 314.996765,1275.078857 315.108521,1274.710693 
z"/>
<path fill="#361D1D" opacity="1.000000" stroke="none" 
	d="
M1391.297852,1309.067383 
	C1391.558594,1308.327759 1392.191772,1307.520752 1392.895752,1306.781250 
	C1393.993896,1305.627930 1395.140137,1304.520508 1396.857422,1303.188965 
	C1397.671631,1303.003052 1397.894531,1303.021729 1398.117432,1303.040527 
	C1398.393433,1307.623169 1395.258545,1308.552612 1391.297852,1309.067383 
z"/>
<path fill="#361D1D" opacity="1.000000" stroke="none" 
	d="
M1373.327637,1313.048828 
	C1374.040283,1308.697266 1377.290161,1310.118652 1380.288818,1310.819580 
	C1378.210327,1311.823242 1375.969604,1312.424805 1373.327637,1313.048828 
z"/>
<path fill="#361D1D" opacity="1.000000" stroke="none" 
	d="
M1382.295898,1311.067627 
	C1383.155762,1307.092651 1386.253296,1308.039551 1389.295898,1308.822021 
	C1387.199341,1309.825195 1384.948730,1310.427979 1382.295898,1311.067627 
z"/>
<path fill="#361D1D" opacity="1.000000" stroke="none" 
	d="
M299.909058,1251.429932 
	C301.399902,1253.174194 302.892975,1255.278442 304.147034,1257.726074 
	C302.575775,1255.976440 301.243500,1253.883179 299.909058,1251.429932 
z"/>
<path fill="#361D1D" opacity="1.000000" stroke="none" 
	d="
M295.908752,1244.429688 
	C297.399872,1246.174316 298.892944,1248.278564 300.147003,1250.726562 
	C298.575531,1248.976685 297.243103,1246.882935 295.908752,1244.429688 
z"/>
<path fill="#361D1D" opacity="1.000000" stroke="none" 
	d="
M303.909027,1258.429932 
	C305.399902,1260.174072 306.892944,1262.278076 308.147034,1264.725952 
	C306.575775,1262.976562 305.243500,1260.883179 303.909027,1258.429932 
z"/>
<path fill="#361D1D" opacity="1.000000" stroke="none" 
	d="
M307.909790,1265.431763 
	C309.400360,1267.174561 310.893250,1269.277588 312.147156,1271.725342 
	C310.576141,1269.977295 309.244141,1267.884644 307.909790,1265.431763 
z"/>
<path fill="#361D1D" opacity="1.000000" stroke="none" 
	d="
M1279.312500,1331.045532 
	C1279.397461,1327.344482 1281.889771,1328.964844 1283.950684,1329.617188 
	C1282.593262,1330.358887 1281.146118,1330.689331 1279.312500,1331.045532 
z"/>
<path fill="#361D1D" opacity="1.000000" stroke="none" 
	d="
M1236.107422,1336.503174 
	C1238.228027,1336.138184 1240.099365,1336.213501 1242.140381,1336.738281 
	C1240.159302,1337.106201 1238.008667,1337.024902 1236.107422,1336.503174 
z"/>
<path fill="#361D1D" opacity="1.000000" stroke="none" 
	d="
M314.939819,1274.422119 
	C314.996765,1275.078857 314.884979,1275.447144 314.508331,1276.331055 
	C313.465759,1275.491943 312.688019,1274.137085 311.911377,1272.431885 
	C312.865356,1272.765503 313.818237,1273.449463 314.939819,1274.422119 
z"/>
<path fill="#361D1D" opacity="1.000000" stroke="none" 
	d="
M1368.268311,1314.068359 
	C1367.906250,1310.434204 1370.276489,1312.107788 1372.085449,1312.714355 
	C1371.000488,1313.432251 1369.821655,1313.732300 1368.268311,1314.068359 
z"/>
<path fill="#361D1D" opacity="1.000000" stroke="none" 
	d="
M1318.325806,1324.035156 
	C1319.023438,1323.506958 1320.095703,1322.968140 1321.310791,1322.826294 
	C1320.536011,1323.490356 1319.618164,1323.757446 1318.325806,1324.035156 
z"/>
<path fill="#361D1D" opacity="1.000000" stroke="none" 
	d="
M330.897217,1305.454346 
	C331.656555,1305.548706 332.412994,1306.022827 332.991272,1306.854736 
	C332.173492,1306.752930 331.533875,1306.293579 330.897217,1305.454346 
z"/>
<path fill="#361D1D" opacity="1.000000" stroke="none" 
	d="
M1398.367065,1302.969482 
	C1397.894531,1303.021729 1397.671631,1303.003052 1397.114380,1302.948364 
	C1396.870972,1302.651733 1396.973389,1302.395996 1397.207397,1301.982422 
	C1397.588501,1301.850586 1397.849609,1301.881104 1398.502808,1301.955322 
	C1398.802124,1302.298828 1398.709473,1302.598633 1398.367065,1302.969482 
z"/>
<path fill="#361D1D" opacity="1.000000" stroke="none" 
	d="
M1167.500000,1347.373779 
	C1167.343628,1346.832642 1167.626831,1346.487061 1168.263916,1346.090332 
	C1168.391846,1346.549072 1168.165771,1347.059204 1167.500000,1347.373779 
z"/>
<path fill="#361D1D" opacity="1.000000" stroke="none" 
	d="
M1129.500000,1352.373779 
	C1129.343628,1351.832642 1129.626831,1351.487061 1130.263916,1351.090332 
	C1130.391724,1351.549072 1130.165649,1352.059082 1129.500000,1352.373779 
z"/>
<path fill="#361D1D" opacity="1.000000" stroke="none" 
	d="
M1209.499756,1341.373657 
	C1209.343750,1340.832764 1209.627075,1340.487183 1210.264648,1340.090820 
	C1210.392212,1340.549683 1210.165649,1341.059448 1209.499756,1341.373657 
z"/>
<path fill="#361D1D" opacity="1.000000" stroke="none" 
	d="
M1104.500000,1355.373657 
	C1104.343628,1354.832642 1104.626831,1354.486938 1105.264160,1354.090332 
	C1105.391968,1354.549194 1105.165771,1355.059204 1104.500000,1355.373657 
z"/>
<path fill="#361D1D" opacity="1.000000" stroke="none" 
	d="
M1235.499756,1337.373657 
	C1235.343628,1336.832642 1235.627075,1336.487183 1236.264648,1336.090820 
	C1236.392090,1336.549683 1236.165649,1337.059448 1235.499756,1337.373657 
z"/>
<path fill="#5E5453" opacity="1.000000" stroke="none" 
	d="
M295.912231,1239.874756 
	C295.679749,1239.891357 295.508484,1239.678467 295.382416,1239.441528 
	C295.365204,1239.409058 295.573883,1239.256714 295.892944,1239.157471 
	C296.107910,1239.155029 295.987671,1239.637817 295.912231,1239.874756 
z"/>
<path fill="#A6A6A6" opacity="1.000000" stroke="none" 
	d="
M102.406204,1219.050293 
	C127.290558,1164.974731 152.502258,1111.072144 177.690979,1057.158813 
	C204.151520,1000.523132 230.590195,943.877258 257.038086,887.235657 
	C263.511719,873.371521 270.142151,859.577148 276.357178,845.598022 
	C278.149811,841.566040 280.159027,840.039368 284.800507,840.044312 
	C431.622742,840.199707 578.445190,840.171875 725.267578,840.171875 
	C951.750732,840.171875 1178.233887,840.187805 1404.716919,840.056152 
	C1409.198608,840.053528 1411.361206,841.362549 1413.265381,845.381348 
	C1438.471802,898.579285 1463.854004,951.693848 1489.208740,1004.821411 
	C1512.845215,1054.348633 1536.514160,1103.860474 1560.141968,1153.391846 
	C1570.449097,1174.999023 1580.688965,1196.638184 1591.046875,1218.615967 
	C1584.104370,1224.478882 1576.216187,1227.827759 1567.213135,1227.985596 
	C1537.948853,1228.499146 1508.683838,1229.228149 1479.417480,1229.322876 
	C1360.116455,1229.709106 1240.814941,1230.030884 1121.513428,1230.107910 
	C1000.372681,1230.186157 879.231567,1230.038208 758.091003,1229.823853 
	C633.126221,1229.602783 508.161804,1229.212891 383.197388,1228.837769 
	C300.720978,1228.590210 218.245010,1228.214478 135.768646,1227.960938 
	C123.945778,1227.924561 113.175056,1224.260132 102.406204,1219.050293 
z"/>
<path fill="#A6A6A6" opacity="1.000000" stroke="none" 
	d="
M1592.984375,96.525993 
	C1584.450562,102.634323 1575.986206,108.480194 1567.376587,114.103798 
	C1514.009521,148.962006 1460.626831,183.796387 1407.163574,218.506714 
	C1404.835938,220.017975 1401.670532,220.957336 1398.894897,220.958130 
	C1025.970581,221.065323 653.046265,221.067749 280.121979,220.922882 
	C277.130371,220.921707 273.663788,219.483582 271.218201,217.650284 
	C215.424957,175.826157 159.743378,133.853027 104.038002,91.911667 
	C103.641106,91.612846 103.203514,91.368073 102.458931,90.999115 
	C104.267296,84.523033 110.341583,82.747917 115.396172,80.167503 
	C126.063026,74.721970 137.686218,73.776001 149.531937,73.809708 
	C336.963287,74.343094 524.394653,74.952919 711.826538,75.198555 
	C847.118652,75.375862 982.411499,75.058388 1117.703979,74.929077 
	C1184.682251,74.865059 1251.660645,74.762268 1318.638794,74.614334 
	C1394.612305,74.446533 1470.585815,74.033150 1546.558716,74.148407 
	C1561.846558,74.171600 1575.832642,79.866089 1588.155518,88.967430 
	C1590.343384,90.583389 1591.405029,93.724152 1592.984375,96.525993 
z"/>
<path fill="#A6A6A6" opacity="1.000000" stroke="none" 
	d="
M270.466766,832.463013 
	C256.528442,862.448792 242.622726,892.449768 228.644714,922.417053 
	C204.410065,974.373352 180.124634,1026.305908 155.871719,1078.253662 
	C135.488464,1121.912964 115.125130,1165.581543 94.722282,1209.231689 
	C94.252235,1210.237183 93.415581,1211.071289 92.405502,1212.110352 
	C81.660561,1205.189575 76.080986,1195.523315 76.065598,1182.827148 
	C75.961815,1097.172852 75.783264,1011.518616 75.768219,925.864319 
	C75.742599,780.049988 75.802750,634.235596 75.858665,488.421265 
	C75.903397,371.770477 76.193672,255.119080 75.842850,138.469559 
	C75.792847,121.842621 81.877724,109.158188 93.704056,98.078598 
	C152.451660,141.935043 210.886917,185.920013 269.647583,230.500290 
	C269.979187,429.239899 269.983795,627.384216 270.011322,825.528503 
	C270.011627,827.840027 270.308411,830.151489 270.466766,832.463013 
z"/>
<path fill="#A6A6A6" opacity="1.000000" stroke="none" 
	d="
M1600.097290,1209.684448 
	C1596.864990,1204.042603 1593.579224,1198.143921 1590.670166,1192.064941 
	C1566.838745,1142.264404 1543.071533,1092.433228 1519.296997,1042.605469 
	C1495.523315,992.779358 1471.770264,942.943359 1447.994263,893.118225 
	C1440.045044,876.459839 1431.954346,859.867859 1424.171021,843.132568 
	C1422.754883,840.087524 1421.832397,836.495667 1421.830566,833.155579 
	C1421.721680,631.178101 1421.744019,429.200562 1421.648071,227.223053 
	C1421.646240,223.455444 1422.717651,221.280701 1425.926270,219.198166 
	C1481.767334,182.953903 1537.519165,146.572174 1593.625732,110.172150 
	C1600.542236,129.423676 1596.327026,149.426254 1597.438477,169.065796 
	C1598.810669,193.314743 1597.829224,217.692673 1598.021118,242.013657 
	C1598.265625,272.982330 1598.664307,303.949829 1599.000366,334.917786 
	C1599.330933,365.390015 1599.669189,395.862122 1599.998901,426.334351 
	C1600.335815,457.473328 1600.662720,488.612366 1601.000610,519.751343 
	C1601.329590,550.057373 1601.669312,580.363220 1601.998901,610.669250 
	C1602.335693,641.638733 1602.664795,672.608215 1603.000000,703.577698 
	C1603.331543,734.216003 1603.667236,764.854309 1603.999634,795.492615 
	C1604.333740,826.297729 1604.665649,857.102905 1605.000000,887.908020 
	C1605.332397,918.547241 1605.667114,949.186401 1605.999512,979.825623 
	C1606.333618,1010.627014 1606.706177,1041.427979 1606.989380,1072.229858 
	C1607.317139,1107.868774 1607.487183,1143.509521 1607.896362,1179.147583 
	C1608.020752,1189.967896 1605.508179,1199.972656 1600.097290,1209.684448 
z"/>
<path fill="#4087D9" opacity="1.000000" stroke="none" 
	d="
M270.783386,832.288696 
	C270.308411,830.151489 270.011627,827.840027 270.011322,825.528503 
	C269.983795,627.384216 269.979187,429.239899 269.964294,230.639252 
	C271.949463,230.111221 273.943329,229.976700 275.937195,229.976654 
	C652.717224,229.967270 1029.497192,229.967407 1406.277222,229.967224 
	C1408.256592,229.967224 1410.235962,229.967239 1412.552979,229.967239 
	C1412.552979,430.509613 1412.552979,630.734741 1412.552979,831.684814 
	C1410.389526,831.684814 1408.124634,831.684814 1405.859619,831.684814 
	C1029.746216,831.684814 653.632751,831.684143 277.519348,831.702576 
	C275.379578,831.702698 273.239777,831.971191 270.783386,832.288696 
M282.027222,234.055176 
	C279.444122,234.055176 276.861023,234.055176 274.318268,234.055176 
	C274.318268,432.108673 274.318268,629.471069 274.318268,826.980835 
	C277.368408,826.980835 280.158325,826.980835 283.880829,827.141907 
	C284.213623,827.154846 284.546448,827.179138 284.879242,827.179138 
	C657.705505,827.183411 1030.531738,827.186523 1403.358032,827.176392 
	C1404.947632,827.176331 1406.537109,826.987549 1408.106689,826.888184 
	C1408.106689,629.030334 1408.106689,431.777710 1408.106689,233.996521 
	C1405.489868,233.996521 1403.195068,233.996521 1400.900269,233.996521 
	C1030.407227,233.996521 659.914307,233.996277 289.421295,234.002747 
	C287.257202,234.002792 285.093140,234.096985 282.027222,234.055176 
z"/>
<path fill="#EBEBEB" opacity="1.000000" stroke="none" 
	d="
M282.929047,234.147217 
	C285.093140,234.096985 287.257202,234.002792 289.421295,234.002747 
	C659.914307,233.996277 1030.407227,233.996521 1400.900269,233.996521 
	C1403.195068,233.996521 1405.489868,233.996521 1408.106689,233.996521 
	C1408.106689,431.777710 1408.106689,629.030334 1408.106689,826.888184 
	C1406.537109,826.987549 1404.947632,827.176331 1403.358032,827.176392 
	C1030.531738,827.186523 657.705505,827.183411 284.879242,827.179138 
	C284.546448,827.179138 284.213623,827.154846 283.411102,826.594482 
	C282.937256,628.747131 282.933136,431.447174 282.929047,234.147217 
M1195.099731,343.381744 
	C1174.208862,332.108246 1152.006470,328.679260 1128.901611,333.718445 
	C1076.049561,345.245667 1043.119629,395.763153 1053.165039,449.216766 
	C1063.155396,502.378601 1116.307739,537.920715 1168.624512,526.581726 
	C1209.422729,517.739136 1240.488403,484.154724 1245.517334,441.870026 
	C1250.244263,402.124176 1230.927368,363.303223 1195.099731,343.381744 
M616.609863,411.027283 
	C605.230103,356.699005 553.953247,322.263092 501.363525,333.631470 
	C447.302368,345.317902 413.557007,397.695343 426.265625,452.292633 
	C435.198547,490.669342 459.706177,516.115906 497.976532,525.532593 
	C536.114014,534.916565 569.203369,523.684143 594.986206,493.876892 
	C615.369934,470.311493 621.661194,442.427612 616.609863,411.027283 
M989.089661,604.627625 
	C991.242920,597.483948 993.980164,590.457214 995.438110,583.174377 
	C999.543030,562.669556 990.589478,547.081177 970.627258,541.042603 
	C962.147888,538.477722 953.027100,537.863586 944.138184,536.933105 
	C941.691772,536.677002 938.600403,537.894165 936.532959,539.421082 
	C911.604614,557.832275 883.816711,568.987549 852.977112,571.831665 
	C814.901062,575.343201 781.025818,564.263611 750.936829,540.974304 
	C737.288635,530.410339 716.592712,531.481262 704.551514,543.991821 
	C690.579956,558.508057 687.117920,576.724243 689.630127,595.837158 
	C691.995789,613.834229 702.695801,627.693909 716.016418,639.303284 
	C747.164124,666.449341 784.526306,677.306458 824.896606,678.880798 
	C874.624939,680.820251 920.470398,666.824463 963.641602,643.007874 
	C965.878296,641.773987 968.180298,639.983704 969.490967,637.859558 
	C976.111877,627.129211 982.414185,616.202393 989.089661,604.627625 
z"/>
<path fill="#040506" opacity="1.000000" stroke="none" 
	d="
M282.478149,234.101196 
	C282.933136,431.447174 282.937256,628.747131 282.944824,826.513977 
	C280.158325,826.980835 277.368408,826.980835 274.318268,826.980835 
	C274.318268,629.471069 274.318268,432.108673 274.318268,234.055176 
	C276.861023,234.055176 279.444122,234.055176 282.478149,234.101196 
z"/>
<path fill="#010101" opacity="1.000000" stroke="none" 
	d="
M1195.411377,343.583008 
	C1230.927368,363.303223 1250.244263,402.124176 1245.517334,441.870026 
	C1240.488403,484.154724 1209.422729,517.739136 1168.624512,526.581726 
	C1116.307739,537.920715 1063.155396,502.378601 1053.165039,449.216766 
	C1043.119629,395.763153 1076.049561,345.245667 1128.901611,333.718445 
	C1152.006470,328.679260 1174.208862,332.108246 1195.411377,343.583008 
z"/>
<path fill="#010101" opacity="1.000000" stroke="none" 
	d="
M616.717957,411.444031 
	C621.661194,442.427612 615.369934,470.311493 594.986206,493.876892 
	C569.203369,523.684143 536.114014,534.916565 497.976532,525.532593 
	C459.706177,516.115906 435.198547,490.669342 426.265625,452.292633 
	C413.557007,397.695343 447.302368,345.317902 501.363525,333.631470 
	C553.953247,322.263092 605.230103,356.699005 616.717957,411.444031 
z"/>
<path fill="#1D1717" opacity="1.000000" stroke="none" 
	d="
M988.958984,604.986084 
	C982.414185,616.202393 976.111877,627.129211 969.490967,637.859558 
	C968.180298,639.983704 965.878296,641.773987 963.641602,643.007874 
	C920.470398,666.824463 874.624939,680.820251 824.896606,678.880798 
	C784.526306,677.306458 747.164124,666.449341 716.016418,639.303284 
	C702.695801,627.693909 691.995789,613.834229 689.630127,595.837158 
	C687.117920,576.724243 690.579956,558.508057 704.551514,543.991821 
	C716.592712,531.481262 737.288635,530.410339 750.936829,540.974304 
	C781.025818,564.263611 814.901062,575.343201 852.977112,571.831665 
	C883.816711,568.987549 911.604614,557.832275 936.532959,539.421082 
	C938.600403,537.894165 941.691772,536.677002 944.138184,536.933105 
	C953.027100,537.863586 962.147888,538.477722 970.627258,541.042603 
	C990.589478,547.081177 999.543030,562.669556 995.438110,583.174377 
	C993.980164,590.457214 991.242920,597.483948 988.958984,604.986084 
M969.419250,542.875916 
	C961.398560,541.606140 953.407837,540.028809 945.340027,539.243713 
	C942.732727,538.989990 939.467896,540.190735 937.275085,541.786194 
	C910.205322,561.482422 880.097168,572.924988 846.646790,574.649841 
	C809.796021,576.549927 777.328491,564.551880 748.467407,542.029358 
	C746.771790,540.706238 745.097168,539.078674 743.135071,538.418884 
	C728.521423,533.505005 711.796387,536.361145 702.735901,549.491089 
	C691.260498,566.120728 687.617432,584.613281 694.090027,604.076477 
	C700.280701,622.692322 713.555969,635.970337 729.322510,646.880127 
	C758.598450,667.137878 791.639526,675.588806 826.711365,676.626587 
	C873.620972,678.014709 917.102173,665.178955 958.220764,643.369141 
	C961.128723,641.826782 964.560486,640.418396 966.452148,637.952881 
	C978.277649,622.539673 988.016174,605.942749 992.496521,586.785645 
	C997.605591,564.939941 990.296875,550.812500 969.419250,542.875916 
z"/>
<path fill="#EE8D8A" opacity="1.000000" stroke="none" 
	d="
M969.802612,542.980469 
	C990.296875,550.812500 997.605591,564.939941 992.496521,586.785645 
	C988.016174,605.942749 978.277649,622.539673 966.452148,637.952881 
	C964.560486,640.418396 961.128723,641.826782 958.220764,643.369141 
	C917.102173,665.178955 873.620972,678.014709 826.711365,676.626587 
	C791.639526,675.588806 758.598450,667.137878 729.322510,646.880127 
	C713.555969,635.970337 700.280701,622.692322 694.090027,604.076477 
	C687.617432,584.613281 691.260498,566.120728 702.735901,549.491089 
	C711.796387,536.361145 728.521423,533.505005 743.135071,538.418884 
	C745.097168,539.078674 746.771790,540.706238 748.467407,542.029358 
	C777.328491,564.551880 809.796021,576.549927 846.646790,574.649841 
	C880.097168,572.924988 910.205322,561.482422 937.275085,541.786194 
	C939.467896,540.190735 942.732727,538.989990 945.340027,539.243713 
	C953.407837,540.028809 961.398560,541.606140 969.802612,542.980469 
z"/>
</svg>